# xmcd
#
# Track frame offsets:
#	150
#	22650
#	34044
#	44782
#	59602
#	73272
#	83118
#	93677
#	108969
#	122246
#
# Disc length: 1768 seconds
#
# Revision: 0
# Processed by: cddbd v1.5.2PL0 Copyright (c) Steve Scherf et al.
# Submitted via: FairStars CD Ripper 1.90
#
DISCID=8a06e60a
DTITLE=Blues Legends - Blues Classics [CD1]
DYEAR=1960
DGENRE=Blues
TTITLE0=BB King - The Thrill is Gone
TTITLE1=John Lee Hooker - Boom Boom
TTITLE2=Jimmy Reed - Baby, What You Want Me To Do
TTITLE3=Mississippi John Hart - Candy MAn
TTITLE4=Big Bill Broonzy - Key To THe HighWay
TTITLE5=John Lee Hooker - Run On
TTITLE6=Robert Johnson - Love In Vain
TTITLE7=BB King (live) - How Blue Can You Get?
TTITLE8=Elmore James - Dust My Broom
TTITLE9=Wilbert Harrison - Kansas City
EXTD=
EXTT0=
EXTT1=
EXTT2=
EXTT3=
EXTT4=
EXTT5=
EXTT6=
EXTT7=
EXTT8=
EXTT9=
PLAYORDER=
